<svg width="77" height="85" viewBox="0 0 77 85" fill="none" xmlns="http://www.w3.org/2000/svg">
<path d="M39.7112 0H7.94224C5.83583 0 3.81569 0.837338 2.32623 2.32781C0.836769 3.81828 0 5.83979 0 7.94764V71.5288C0 73.6366 0.836769 75.6581 2.32623 77.1486C3.81569 78.6391 5.83583 79.4764 7.94224 79.4764H35.7401C34.1119 78.4829 32.5632 77.2511 31.213 75.9C29.9025 74.5886 28.7906 73.1183 27.7978 71.5288H7.94224V7.94764H35.7401V27.8167H55.5957V32.5058C58.4152 33.1417 61.1155 34.2146 63.5379 35.7644V23.8429L39.7112 0ZM64.769 67.1576C70.0505 58.7728 67.509 47.6858 59.2094 42.4404C50.8303 37.1552 39.7112 39.7382 34.509 48.0037C29.1877 56.3885 31.769 67.4357 40.0686 72.7209C45.8664 76.4165 53.2527 76.4165 59.0902 72.8004L71.4801 85L77 79.4764L64.769 67.1576ZM49.639 67.5549C47.006 67.5549 44.4808 66.5083 42.619 64.6452C40.7572 62.7821 39.7112 60.2552 39.7112 57.6204C39.7112 54.9856 40.7572 52.4587 42.619 50.5956C44.4808 48.7325 47.006 47.6858 49.639 47.6858C52.272 47.6858 54.7972 48.7325 56.659 50.5956C58.5208 52.4587 59.5668 54.9856 59.5668 57.6204C59.5668 60.2552 58.5208 62.7821 56.659 64.6452C54.7972 66.5083 52.272 67.5549 49.639 67.5549Z" fill="#913DD9"/>
</svg>
