<svg width="14" height="14" viewBox="0 0 14 14" fill="none" xmlns="http://www.w3.org/2000/svg">
<g clip-path="url(#clip0_564_158)">
<path d="M6.4165 4.08332H7.58317V5.24999H6.4165V4.08332ZM6.4165 6.41666H7.58317V9.91666H6.4165V6.41666ZM6.99984 1.16666C3.77984 1.16666 1.1665 3.77999 1.1665 6.99999C1.1665 10.22 3.77984 12.8333 6.99984 12.8333C10.2198 12.8333 12.8332 10.22 12.8332 6.99999C12.8332 3.77999 10.2198 1.16666 6.99984 1.16666ZM6.99984 11.6667C4.42734 11.6667 2.33317 9.57249 2.33317 6.99999C2.33317 4.42749 4.42734 2.33332 6.99984 2.33332C9.57234 2.33332 11.6665 4.42749 11.6665 6.99999C11.6665 9.57249 9.57234 11.6667 6.99984 11.6667Z" fill="black"/>
</g>
<defs>
<clipPath id="clip0_564_158">
<rect width="14" height="14" fill="white"/>
</clipPath>
</defs>
</svg>
