<svg width="204" height="28" viewBox="0 0 204 28" fill="none" xmlns="http://www.w3.org/2000/svg">
<path d="M10.6536 28C7.30531 28 4.69265 26.9805 2.81559 24.9416C0.938529 22.8772 0 20.0737 0 16.5311V0.933333H4.10924V16.4164C4.10924 18.9395 4.66728 20.8893 5.78337 22.2655C6.92482 23.6163 8.54823 24.2917 10.6536 24.2917C12.7589 24.2917 14.3696 23.6036 15.4857 22.2273C16.6272 20.851 17.1979 18.9141 17.1979 16.4164V0.933333H21.3072V16.5311C21.3072 20.0737 20.3686 22.8772 18.4916 24.9416C16.6145 26.9805 14.0018 28 10.6536 28Z" fill="white"/>
<path d="M29.8785 0.933333H38.5535C45.453 0.933333 48.9027 3.83879 48.9027 9.64972C48.9027 12.5552 48.053 14.7852 46.3535 16.3399C44.654 17.8946 42.1681 18.6719 38.896 18.6719H33.9877V27.5412H29.8785V0.933333ZM38.6296 14.9637C40.6842 14.9637 42.1808 14.5686 43.1193 13.7785C44.0579 12.9884 44.5271 11.6632 44.5271 9.80264C44.5271 7.96761 44.0579 6.6678 43.1193 5.9032C42.2062 5.11312 40.6842 4.71808 38.5535 4.71808H33.9877V14.9637H38.6296Z" fill="white"/>
<path d="M89.7727 0.933333L81.6684 27.5412H76.7221L70.7865 7.43239L64.851 27.5412H59.9047L51.8003 0.933333H56.214L62.492 22.2655L68.6558 0.933333H73.1075L79.2713 22.2655L85.5493 0.933333H89.7727Z" fill="white"/>
<path d="M108.721 20.9657H96.5834L94.1483 27.5412H90.0391L100.16 0.933333H105.335L115.455 27.5412H111.156L108.721 20.9657ZM107.389 17.4486L102.671 4.75631L97.9151 17.4486H107.389Z" fill="white"/>
<path d="M136.391 27.5412L130.988 17.2574H125.319V27.5412H121.21V0.933333H130.455C133.728 0.933333 136.175 1.62147 137.799 2.99774C139.422 4.34852 140.234 6.31099 140.234 8.88512C140.234 10.7711 139.815 12.3768 138.978 13.7021C138.141 15.0019 136.898 15.9576 135.25 16.5693L141.071 27.5412H136.391ZM130.494 13.5109C132.32 13.5109 133.664 13.1669 134.527 12.4787C135.414 11.7906 135.858 10.6182 135.858 8.96158C135.858 7.4069 135.427 6.31098 134.565 5.67382C133.702 5.03666 132.333 4.71808 130.455 4.71808H125.319V13.5109H130.494Z" fill="white"/>
<path d="M157.173 0.933333C161.181 0.933333 164.263 2.11846 166.419 4.4887C168.6 6.83346 169.691 10.083 169.691 14.2373C169.691 18.3916 168.6 21.6539 166.419 24.0241C164.263 26.3689 161.181 27.5412 157.173 27.5412H147.851V0.933333H157.173ZM157.325 23.7565C159.912 23.7565 161.891 22.9282 163.261 21.2716C164.63 19.6149 165.315 17.2702 165.315 14.2373C165.315 11.2044 164.63 8.85964 163.261 7.20301C161.891 5.54639 159.912 4.71808 157.325 4.71808H151.96V23.7565H157.325Z" fill="white"/>
<path d="M180.819 9.33333H183.602V28H180.819V9.33333Z" fill="white"/>
<path d="M196.586 9.33333H199.368V28H196.586V9.33333Z" fill="white"/>
<path d="M188.239 19.6H191.949V25.2H188.239V19.6Z" fill="white"/>
<path d="M188.133 1.98652L190.1 0.00662448L204 13.9941L202.033 15.974L188.133 1.98652Z" fill="white"/>
<path d="M190.088 0L192.055 1.9799L178.149 15.974L176.182 13.9941L190.088 0Z" fill="white"/>
<path d="M182.674 28V25.2H197.513V28H182.674Z" fill="white"/>
</svg>
