<svg width="91" height="66" viewBox="0 0 91 66" fill="none" xmlns="http://www.w3.org/2000/svg">
<path d="M16.5455 0H91V49.5H16.5455V0ZM53.7727 12.375C57.0638 12.375 60.2201 13.6788 62.5473 15.9996C64.8744 18.3203 66.1818 21.4679 66.1818 24.75C66.1818 28.0321 64.8744 31.1797 62.5473 33.5004C60.2201 35.8212 57.0638 37.125 53.7727 37.125C50.4816 37.125 47.3253 35.8212 44.9982 33.5004C42.671 31.1797 41.3636 28.0321 41.3636 24.75C41.3636 21.4679 42.671 18.3203 44.9982 15.9996C47.3253 13.6788 50.4816 12.375 53.7727 12.375ZM33.0909 8.25C33.0909 10.438 32.2193 12.5365 30.6679 14.0836C29.1164 15.6308 27.0122 16.5 24.8182 16.5V33C27.0122 33 29.1164 33.8692 30.6679 35.4164C32.2193 36.9635 33.0909 39.062 33.0909 41.25H74.4545C74.4545 39.062 75.3261 36.9635 76.8776 35.4164C78.429 33.8692 80.5332 33 82.7273 33V16.5C80.5332 16.5 78.429 15.6308 76.8776 14.0836C75.3261 12.5365 74.4545 10.438 74.4545 8.25H33.0909ZM0 16.5H8.27273V57.75H74.4545V66H0V16.5Z" fill="#913DD9"/>
</svg>
