<svg width="82" height="85" viewBox="0 0 82 85" fill="none" xmlns="http://www.w3.org/2000/svg">
<path d="M4 77H44C46.2 77 48 78.8 48 81C48 83.2 46.2 85 44 85H4C1.8 85 0 83.2 0 81C0 78.8 1.8 77 4 77ZM16.96 25.28L28.28 13.96L79.2 64.88C82.32 68 82.32 73.0799 79.2 76.2C76.08 79.32 71 79.32 67.88 76.2L16.96 25.28ZM50.92 2.63996L62.24 13.96C65.36 17.08 65.36 22.16 62.24 25.28L56.56 30.96L33.96 8.31995L39.6 2.67996C42.72 -0.480045 47.8 -0.480044 50.92 2.63996ZM11.32 30.92L33.96 53.56L28.32 59.2C25.2 62.32 20.12 62.32 17 59.2L5.68 47.88C2.56 44.76 2.56 39.68 5.68 36.56L11.32 30.92Z" fill="#913DD9"/>
</svg>
