<svg width="79" height="79" viewBox="0 0 79 79" fill="none" xmlns="http://www.w3.org/2000/svg">
<path d="M23.858 56.643C27.8475 46.7285 32.3505 35.392 49.375 31.6C49.375 31.6 29.625 31.6 23.226 49.8885C23.226 49.8885 19.75 46.4125 19.75 42.4625C19.75 38.5125 23.7 30.1385 33.575 28.1635C36.3795 27.65 39.5 27.1365 42.581 26.702C50.3625 25.675 57.828 24.569 59.25 21.725C59.25 21.725 53.325 55.3 31.6 55.3C30.889 55.3 29.9015 55.063 28.9535 54.7075L27.097 59.25L23.3445 57.9465L23.858 56.643ZM39.5 7.9C56.9195 7.9 71.1 22.0805 71.1 39.5C71.1 56.9195 56.9195 71.1 39.5 71.1C22.0805 71.1 7.9 56.9195 7.9 39.5C7.9 22.0805 22.0805 7.9 39.5 7.9ZM39.5 0C17.775 0 0 17.775 0 39.5C0 61.225 17.775 79 39.5 79C61.225 79 79 61.225 79 39.5C79 17.775 61.225 0 39.5 0Z" fill="#913DD9"/>
</svg>
