<svg width="86" height="86" viewBox="0 0 86 86" fill="none" xmlns="http://www.w3.org/2000/svg">
<path d="M48.2206 86L41.2772 69.686C47.9651 67.2155 54.2269 63.893 60.0202 60.0168L48.2206 86ZM16.3149 44.7251L0 37.7821L25.9846 25.9832C22.1082 31.7761 18.7856 38.0376 16.3149 44.7251ZM74.1627 8.51907C75.3554 8.51907 76.4203 8.51907 77.3149 8.73205C78.0391 14.6528 77.2297 26.8351 63.2576 40.8063C56.016 48.0901 47.3687 53.6701 37.6564 57.3759L28.4979 48.4309C32.4169 38.5914 37.9972 29.9445 45.1962 22.7459C56.9532 10.9896 67.4322 8.51907 74.1627 8.51907ZM74.1627 0C65.7283 0 52.949 2.93908 39.1473 16.74C29.8184 26.0683 24.2381 36.3338 20.6173 45.3214C19.4246 48.5161 20.2339 52.0089 22.5768 54.3943L31.6501 63.4245C33.2688 65.0431 35.4413 66.0228 37.699 66.0228C38.6788 66.0228 39.7011 65.7672 40.6808 65.3839C49.7968 61.891 59.935 56.1833 69.2639 46.8549C93.3743 22.7459 84.3435 1.66122 84.3435 1.66122C84.3435 1.66122 80.4671 0 74.1627 0ZM54.2269 31.7761C50.9043 28.4537 50.9043 23.0441 54.2269 19.7216C57.5495 16.3992 62.9595 16.3992 66.2821 19.7216C69.5621 23.0441 69.6047 28.4537 66.2821 31.7761C62.9595 35.0986 57.5495 35.0986 54.2269 31.7761ZM30.1166 61.891L24.1103 55.8851L30.1166 61.891ZM18.8708 85.1907L34.3764 69.686C32.9281 69.3026 31.5223 68.6637 30.2444 67.7692L12.8645 85.1907H18.8708ZM0.809357 85.1907H6.81564L27.1348 64.9153L21.0859 58.9094L0.809357 79.1847V85.1907ZM0.809357 73.1362L18.2318 55.7573C17.3373 54.4794 16.6983 53.1164 16.3149 51.6256L0.809357 67.1303V73.1362Z" fill="#913DD9"/>
</svg>
